<svg width="100.000000" height="100.000000" viewBox="0 0 100 100" fill="none" xmlns="http://www.w3.org/2000/svg" xmlns:xlink="http://www.w3.org/1999/xlink">
	<desc>
			Created with Pixso.
	</desc>
	<defs>
		<clipPath id="clip2_3792">
			<rect id="telescope" rx="0.000000" width="38.333332" height="38.333332" transform="translate(30.833334 30.833334)" fill="white" fill-opacity="0"/>
		</clipPath>
	</defs>
	<rect id="Rectangle 1069" rx="50.000000" width="100.000000" height="100.000000" fill="#E0F2FE" fill-opacity="1.000000"/>
	<rect id="telescope" rx="0.000000" width="38.333332" height="38.333332" transform="translate(30.833334 30.833334)" fill="#FFFFFF" fill-opacity="0"/>
	<g clip-path="url(#clip2_3792)">
		<path id="Icon" d="M50 55.33C48.15 55.33 46.66 53.84 46.66 52C46.66 50.15 48.15 48.66 50 48.66C51.84 48.66 53.33 50.15 53.33 52C53.33 53.84 51.84 55.33 50 55.33ZM51.86 54.74L60 66.66M48.13 54.74L40 66.66M58.58 37.55L60.73 45.6L41.09 50.86C40.64 50.98 40.42 51.04 40.22 51C40.05 50.96 39.89 50.87 39.78 50.74C39.64 50.59 39.58 50.37 39.46 49.92L37.99 44.44C37.87 43.99 37.81 43.77 37.85 43.57C37.89 43.4 37.98 43.24 38.11 43.13C38.26 42.99 38.49 42.93 38.94 42.81L58.58 37.55ZM67.26 44.2C67.38 44.65 67.44 44.87 67.4 45.07C67.36 45.24 67.27 45.39 67.14 45.51C66.99 45.65 66.77 45.71 66.32 45.83C64.51 46.31 63.61 46.55 62.83 46.39C62.14 46.24 61.52 45.88 61.04 45.36C60.51 44.76 60.27 43.86 59.78 42.06L59.53 41.09C59.04 39.29 58.8 38.39 58.97 37.6C59.11 36.91 59.47 36.29 60 35.82C60.59 35.28 61.49 35.04 63.3 34.56C63.75 34.44 63.97 34.38 64.17 34.42C64.34 34.46 64.5 34.55 64.61 34.68C64.75 34.83 64.81 35.05 64.93 35.5L67.26 44.2ZM36.79 45.11C37.24 44.99 37.47 44.93 37.66 44.97C37.84 45.01 37.99 45.1 38.11 45.23C38.24 45.38 38.3 45.6 38.42 46.05L39.03 48.31C39.15 48.76 39.21 48.98 39.17 49.18C39.13 49.35 39.04 49.51 38.91 49.63C38.76 49.76 38.54 49.82 38.09 49.94L35.83 50.55C35.38 50.67 35.16 50.73 34.96 50.68C34.79 50.65 34.63 50.56 34.51 50.43C34.38 50.28 34.32 50.05 34.2 49.6L33.59 47.35C33.47 46.9 33.41 46.67 33.46 46.48C33.49 46.3 33.58 46.15 33.71 46.03C33.86 45.9 34.09 45.84 34.54 45.72L36.79 45.11Z" stroke="#3B82F6" stroke-opacity="1.000000" stroke-width="3.333333" stroke-linejoin="round" stroke-linecap="round"/>
	</g>
</svg>
