<svg width="100.000000" height="100.000000" viewBox="0 0 100 100" fill="none" xmlns="http://www.w3.org/2000/svg" xmlns:xlink="http://www.w3.org/1999/xlink">
	<desc>
			Created with Pixso.
	</desc>
	<defs>
		<clipPath id="clip2_3801">
			<rect id="code-browser" rx="0.000000" width="38.333332" height="38.333332" transform="translate(30.833090 30.833334)" fill="white" fill-opacity="0"/>
		</clipPath>
	</defs>
	<rect id="Rectangle 1069" rx="50.000000" width="100.000000" height="100.000000" fill="#E0F2FE" fill-opacity="1.000000"/>
	<rect id="icon/code-browser" rx="0.000000" width="39.000000" height="39.000000" transform="translate(30.499756 30.500000)" fill="#FFFFFF" fill-opacity="0"/>
	<rect id="code-browser" rx="0.000000" width="38.333332" height="38.333332" transform="translate(30.833090 30.833334)" fill="#FFFFFF" fill-opacity="0"/>
	<g clip-path="url(#clip2_3801)">
		<path id="Icon" d="M66.66 45L33.33 45M66.66 57C66.66 59.8 66.66 61.2 66.12 62.27C65.64 63.21 64.87 63.97 63.93 64.45C62.86 65 61.46 65 58.66 65L41.33 65C38.53 65 37.13 65 36.06 64.45C35.12 63.97 34.35 63.21 33.87 62.27C33.33 61.2 33.33 59.8 33.33 57L33.33 43C33.33 40.19 33.33 38.79 33.87 37.73C34.35 36.78 35.12 36.02 36.06 35.54C37.13 35 38.53 35 41.33 35L58.66 35C61.46 35 62.86 35 63.93 35.54C64.87 36.02 65.64 36.78 66.12 37.73C66.66 38.79 66.66 40.19 66.66 43L66.66 57ZM53.33 59.16L57.5 55L53.33 50.83M46.66 50.83L42.5 55L46.66 59.16" stroke="#3B82F6" stroke-opacity="1.000000" stroke-width="3.333333" stroke-linejoin="round" stroke-linecap="round"/>
	</g>
</svg>
