<svg width="60" height="52" viewBox="0 0 60 52" fill="none" xmlns="http://www.w3.org/2000/svg">
<rect width="60" height="52" rx="4" fill="#F2F2F2"/>
<path d="M22.0044 20.4169L18.7617 17.1742L20.1759 15.76L23.4186 19.0026H38.6603C39.2126 19.0026 39.6603 19.4504 39.6603 20.0026C39.6603 20.1 39.6461 20.1968 39.6182 20.29L37.2182 28.29C37.0913 28.713 36.7019 29.0027 36.2603 29.0027H24.0044V31.0027H35.0044V33.0027H23.0044C22.4521 33.0027 22.0044 32.5549 22.0044 32.0027V20.4169ZM24.0044 21.0026V27.0027H35.5163L37.3163 21.0026H24.0044ZM23.5044 37.0027C22.6759 37.0027 22.0044 36.3311 22.0044 35.5027C22.0044 34.6742 22.6759 34.0027 23.5044 34.0027C24.3328 34.0027 25.0044 34.6742 25.0044 35.5027C25.0044 36.3311 24.3328 37.0027 23.5044 37.0027ZM35.5044 37.0027C34.6759 37.0027 34.0044 36.3311 34.0044 35.5027C34.0044 34.6742 34.6759 34.0027 35.5044 34.0027C36.3328 34.0027 37.0044 34.6742 37.0044 35.5027C37.0044 36.3311 36.3328 37.0027 35.5044 37.0027Z" fill="black"/>
</svg>
