<svg width="60" height="52" viewBox="0 0 60 52" fill="none" xmlns="http://www.w3.org/2000/svg">
<rect width="60" height="52" rx="4" fill="#F2F2F2"/>
<mask id="mask0_277_282" style="mask-type:alpha" maskUnits="userSpaceOnUse" x="18" y="14" width="24" height="24">
<rect x="18" y="14" width="24" height="24" fill="#D9D9D9"/>
</mask>
<g mask="url(#mask0_277_282)">
<path d="M30 36C28.6167 36 27.3167 35.7375 26.1 35.2125C24.8833 34.6875 23.825 33.975 22.925 33.075C22.025 32.175 21.3125 31.1167 20.7875 29.9C20.2625 28.6833 20 27.3833 20 26C20 24.6167 20.2625 23.3167 20.7875 22.1C21.3125 20.8833 22.025 19.825 22.925 18.925C23.825 18.025 24.8833 17.3125 26.1 16.7875C27.3167 16.2625 28.6167 16 30 16C31.3833 16 32.6833 16.2625 33.9 16.7875C35.1167 17.3125 36.175 18.025 37.075 18.925C37.975 19.825 38.6875 20.8833 39.2125 22.1C39.7375 23.3167 40 24.6167 40 26C40 27.3833 39.7375 28.6833 39.2125 29.9C38.6875 31.1167 37.975 32.175 37.075 33.075C36.175 33.975 35.1167 34.6875 33.9 35.2125C32.6833 35.7375 31.3833 36 30 36ZM29 33.95V32C28.45 32 27.9792 31.8042 27.5875 31.4125C27.1958 31.0208 27 30.55 27 30V29L22.2 24.2C22.15 24.5 22.1042 24.8 22.0625 25.1C22.0208 25.4 22 25.7 22 26C22 28.0167 22.6625 29.7833 23.9875 31.3C25.3125 32.8167 26.9833 33.7 29 33.95ZM35.9 31.4C36.2333 31.0333 36.5333 30.6375 36.8 30.2125C37.0667 29.7875 37.2875 29.3458 37.4625 28.8875C37.6375 28.4292 37.7708 27.9583 37.8625 27.475C37.9542 26.9917 38 26.5 38 26C38 24.3667 37.5458 22.875 36.6375 21.525C35.7292 20.175 34.5167 19.2 33 18.6V19C33 19.55 32.8042 20.0208 32.4125 20.4125C32.0208 20.8042 31.55 21 31 21H29V23C29 23.2833 28.9042 23.5208 28.7125 23.7125C28.5208 23.9042 28.2833 24 28 24H26V26H32C32.2833 26 32.5208 26.0958 32.7125 26.2875C32.9042 26.4792 33 26.7167 33 27V30H34C34.4333 30 34.825 30.1292 35.175 30.3875C35.525 30.6458 35.7667 30.9833 35.9 31.4Z" fill="#0D0D0D"/>
</g>
</svg>
