<svg width="24.000000" height="24.000000" viewBox="0 0 24 24" fill="none" xmlns="http://www.w3.org/2000/svg" xmlns:xlink="http://www.w3.org/1999/xlink">
	<desc>
			Created with Pixso.
	</desc>
	<defs>
		<clipPath id="clip5_5121">
			<rect id="google" rx="0.000000" width="23.000000" height="23.000000" transform="translate(0.500000 0.500000)" fill="white" fill-opacity="0"/>
		</clipPath>
	</defs>
	<rect id="google" rx="0.000000" width="23.000000" height="23.000000" transform="translate(0.500000 0.500000)" fill="#FFFFFF" fill-opacity="0"/>
	<g clip-path="url(#clip5_5121)">
		<path id="Vector" d="M22.56 12.25C22.56 11.47 22.49 10.72 22.36 10L12 10L12 14.25L17.92 14.25C17.66 15.62 16.87 16.79 15.71 17.56L15.71 20.33L19.28 20.33C21.36 18.41 22.56 15.6 22.56 12.25Z" fill="#4285F4" fill-opacity="1.000000" fill-rule="nonzero"/>
		<path id="Vector" d="M12 23C14.97 23 17.45 22.02 19.28 20.34L15.71 17.57C14.73 18.23 13.48 18.62 12 18.62C9.14 18.62 6.71 16.7 5.83 14.1L2.17 14.1L2.17 16.93C3.98 20.53 7.7 23 12 23Z" fill="#34A853" fill-opacity="1.000000" fill-rule="nonzero"/>
		<path id="Vector" d="M5.84 14.08C5.62 13.42 5.48 12.73 5.48 12C5.48 11.27 5.62 10.56 5.84 9.9L5.84 7.06L2.17 7.06C1.42 8.54 1 10.21 1 12C1 13.77 1.42 15.44 2.17 16.92L5.03 14.71L5.84 14.08Z" fill="#FBBC05" fill-opacity="1.000000" fill-rule="nonzero"/>
		<path id="Vector" d="M12 5.37C13.62 5.37 15.06 5.93 16.2 7.02L19.36 3.87C17.45 2.08 14.97 1 12 1C7.7 1 3.98 3.47 2.17 7.06L5.83 9.91C6.71 7.31 9.14 5.37 12 5.37Z" fill="#EA4335" fill-opacity="1.000000" fill-rule="nonzero"/>
	</g>
</svg>
