<svg width="64" height="24" viewBox="0 0 64 24" fill="none" xmlns="http://www.w3.org/2000/svg">
<path d="M14.5998 8.00033H21C22.1046 8.00033 23 8.89576 23 10.0003V12.1047C23 12.3659 22.9488 12.6246 22.8494 12.8662L19.755 20.3811C19.6007 20.7558 19.2355 21.0003 18.8303 21.0003H2C1.44772 21.0003 1 20.5526 1 20.0003V10.0003C1 9.44804 1.44772 9.00033 2 9.00033H5.48184C5.80677 9.00033 6.11143 8.84246 6.29881 8.57701L11.7522 0.851355C11.8947 0.649486 12.1633 0.581978 12.3843 0.692483L14.1984 1.59951C15.25 2.12534 15.7931 3.31292 15.5031 4.45235L14.5998 8.00033ZM7 10.5878V19.0003H18.1606L21 12.1047V10.0003H14.5998C13.2951 10.0003 12.3398 8.77128 12.6616 7.50691L13.5649 3.95894C13.6229 3.73105 13.5143 3.49353 13.3039 3.38837L12.6428 3.0578L7.93275 9.73038C7.68285 10.0844 7.36341 10.3746 7 10.5878ZM5 11.0003H3V19.0003H5V11.0003Z" fill="#2D2F31"/>
<path d="M49.4002 16H43C41.8954 16 41 15.1046 41 14V11.8957C41 11.6344 41.0512 11.3757 41.1506 11.1342L44.245 3.61925C44.3993 3.24455 44.7645 3 45.1697 3H62C62.5523 3 63 3.44772 63 4V14C63 14.5523 62.5523 15 62 15H58.5182C58.1932 15 57.8886 15.1579 57.7012 15.4233L52.2478 23.149C52.1053 23.3508 51.8367 23.4184 51.6157 23.3078L49.8016 22.4008C48.75 21.875 48.2069 20.6874 48.4969 19.548L49.4002 16ZM57 13.4125V5H45.8394L43 11.8957V14H49.4002C50.7049 14 51.6602 15.229 51.3384 16.4934L50.4351 20.0414C50.3771 20.2693 50.4857 20.5068 50.6961 20.612L51.3572 20.9425L56.0673 14.27C56.3172 13.9159 56.6366 13.6257 57 13.4125ZM59 13H61V5H59V13Z" fill="#2D2F31"/>
</svg>
