<svg width="24" height="24" viewBox="0 0 24 24" fill="none" xmlns="http://www.w3.org/2000/svg">
<path d="M21.9677 9.5625C21.9351 9.46833 21.8739 9.38668 21.7927 9.32891C21.7115 9.27114 21.6143 9.24012 21.5146 9.24018H14.7557L12.4524 2.72202C12.4193 2.62845 12.3581 2.54745 12.277 2.49016C12.196 2.43286 12.0992 2.4021 11.9999 2.4021C11.9007 2.4021 11.8039 2.43286 11.7228 2.49016C11.6418 2.54745 11.5805 2.62845 11.5474 2.72202L9.24389 9.24018H2.48573C2.28149 9.24018 2.09957 9.36954 2.03189 9.5625C1.9993 9.65675 1.99683 9.75881 2.02482 9.85453C2.05281 9.95025 2.10988 10.0349 2.18813 10.0967L7.46477 14.2749L5.10317 20.9579C5.07053 21.0511 5.06738 21.1521 5.09415 21.2472C5.12093 21.3422 5.17632 21.4267 5.25281 21.4892C5.3293 21.5516 5.42316 21.589 5.52165 21.5963C5.62013 21.6035 5.71845 21.5802 5.80325 21.5296L11.9996 17.8125L18.1959 21.5296C18.2807 21.5803 18.379 21.6037 18.4776 21.5965C18.5761 21.5893 18.67 21.5519 18.7466 21.4894C18.8231 21.4269 18.8785 21.3424 18.9053 21.2473C18.9321 21.1522 18.9289 21.0512 18.8962 20.9579L16.5346 14.2749L21.8127 10.0967C21.8908 10.0348 21.9478 9.95013 21.9755 9.85438C22.0033 9.75864 22.0006 9.65662 21.9677 9.5625Z" fill="#FFD500"/>
</svg>
