<svg width="100.000000" height="100.000000" viewBox="0 0 100 100" fill="none" xmlns="http://www.w3.org/2000/svg" xmlns:xlink="http://www.w3.org/1999/xlink">
	<desc>
			Created with Pixso.
	</desc>
	<defs>
		<clipPath id="clip2_3809">
			<rect id="briefcase-02" rx="0.000000" width="38.333332" height="38.333332" transform="translate(30.833334 30.833334)" fill="white" fill-opacity="0"/>
		</clipPath>
	</defs>
	<rect id="Rectangle 1069" rx="50.000000" width="100.000000" height="100.000000" fill="#E0F2FE" fill-opacity="1.000000"/>
	<rect id="icon/briefcase" rx="0.000000" width="39.000000" height="39.000000" transform="translate(30.500000 30.500000)" fill="#FFFFFF" fill-opacity="0"/>
	<rect id="briefcase-02" rx="0.000000" width="38.333332" height="38.333332" transform="translate(30.833334 30.833334)" fill="#FFFFFF" fill-opacity="0"/>
	<g clip-path="url(#clip2_3809)">
		<path id="Icon" d="M56.66 65L56.66 41.66C56.66 40.11 56.66 39.34 56.49 38.7C56.03 36.98 54.68 35.63 52.96 35.17C52.32 35 51.54 35 50 35C48.45 35 47.67 35 47.03 35.17C45.31 35.63 43.96 36.98 43.5 38.7C43.33 39.34 43.33 40.11 43.33 41.66L43.33 65M61.33 41.66C63.2 41.66 64.13 41.66 64.84 42.02C65.47 42.34 65.98 42.85 66.3 43.48C66.66 44.19 66.66 45.13 66.66 47L66.66 59.66C66.66 61.53 66.66 62.46 66.3 63.18C65.98 63.8 65.47 64.31 64.84 64.63C64.13 65 63.2 65 61.33 65L38.66 65C36.79 65 35.86 65 35.15 64.63C34.52 64.31 34.01 63.8 33.69 63.18C33.33 62.46 33.33 61.53 33.33 59.66L33.33 47C33.33 45.13 33.33 44.19 33.69 43.48C34.01 42.85 34.52 42.34 35.15 42.02C35.86 41.66 36.79 41.66 38.66 41.66L61.33 41.66Z" stroke="#3B82F6" stroke-opacity="1.000000" stroke-width="3.333333" stroke-linejoin="round" stroke-linecap="round"/>
	</g>
</svg>
